<?xml version="1.0" standalone="no"?>
<!DOCTYPE svg PUBLIC "-//W3C//DTD SVG 20010904//EN"
 "http://www.w3.org/TR/2001/REC-SVG-20010904/DTD/svg10.dtd">
<svg version="1.0" xmlns="http://www.w3.org/2000/svg"
 width="700.000000pt" height="700.000000pt" viewBox="0 0 700.000000 700.000000"
 preserveAspectRatio="xMidYMid meet">
<metadata>
Created by potrace 1.14, written by Peter Selinger 2001-2017
</metadata>
<g transform="translate(0.000000,700.000000) scale(0.100000,-0.100000)"
fill="#000000" stroke="none">
<path d="M4005 6981 c-80 -38 -225 -213 -371 -446 -70 -114 -175 -362 -224
-532 -42 -147 -82 -351 -83 -420 0 -9 -4 -10 -14 -2 -7 6 -13 17 -13 23 0 14
-144 251 -165 273 -8 8 -15 18 -15 21 0 4 -10 18 -22 32 -13 14 -36 42 -51 63
-89 119 -303 316 -447 412 -201 134 -449 237 -674 281 -88 17 -140 25 -196 32
-79 9 -368 9 -430 0 -112 -16 -141 -22 -240 -49 -58 -16 -128 -39 -154 -52
l-48 -23 100 -120 c268 -319 575 -588 827 -724 72 -39 216 -96 268 -105 37 -7
52 -24 20 -23 -20 1 -109 -11 -133 -17 -8 -2 -31 -7 -50 -10 -19 -3 -43 -8
-52 -11 -9 -3 -25 -7 -35 -9 -47 -10 -166 -47 -215 -65 -377 -147 -655 -395
-819 -735 -83 -172 -131 -331 -163 -545 -25 -164 -26 -565 -2 -840 19 -213 38
-352 81 -595 22 -123 83 -387 111 -485 65 -223 157 -498 199 -595 7 -16 37
-86 66 -155 146 -343 364 -714 558 -953 31 -38 67 -83 81 -99 53 -66 217 -222
294 -282 142 -109 242 -163 379 -204 58 -17 90 -20 225 -17 217 5 339 30 547
115 138 56 226 73 370 72 133 -2 213 -21 405 -95 100 -39 174 -60 295 -81 17
-3 91 -8 165 -12 106 -4 152 -2 215 11 86 18 226 80 315 140 470 316 927 1025
1209 1876 23 69 43 134 46 145 2 10 20 75 40 144 19 69 37 134 40 145 2 11 17
82 34 158 17 76 33 157 36 180 4 23 8 44 10 47 1 3 6 25 9 50 3 25 8 54 10 65
2 11 7 43 10 70 4 28 11 79 16 115 5 36 12 97 15 135 3 39 8 81 10 95 17 108
24 584 12 730 -29 333 -136 652 -289 865 -211 293 -518 496 -902 595 -65 16
-141 33 -169 36 -29 4 -55 8 -58 10 -15 8 -170 18 -309 18 -260 1 -347 -13
-618 -98 -78 -25 -155 -48 -170 -51 -15 -3 -37 -8 -48 -10 -12 -3 -49 -9 -82
-13 l-60 -8 4 35 c7 63 14 115 18 137 2 12 7 38 10 58 3 19 11 57 17 83 6 27
12 55 14 63 2 8 8 26 13 40 5 14 10 27 10 30 1 42 94 280 149 380 59 108 155
249 208 306 5 6 31 34 56 61 78 82 94 167 50 253 -42 82 -162 121 -246 81z
m-695 -1511 c13 -1 13 -2 0 -9 -9 -5 -47 -3 -90 5 l-75 13 75 -4 c41 -2 82 -4
90 -5z"/>
</g>
</svg>
